<svg id="svg" version="1.1" xmlns="http://www.w3.org/2000/svg" xmlns:xlink="http://www.w3.org/1999/xlink" width="400" height="267.9405520169851" viewBox="0, 0, 400,267.9405520169851"><g id="svgg"><path id="path0" d="M269.083 55.928 C 268.900 55.969,268.337 56.083,267.833 56.181 C 266.857 56.371,265.857 56.666,265.583 56.845 C 265.492 56.905,265.202 57.005,264.940 57.068 C 260.043 58.240,254.311 64.738,252.943 70.667 C 252.497 72.600,252.484 72.703,251.916 79.000 C 251.780 80.512,251.597 82.462,251.509 83.333 C 251.115 87.238,250.990 88.540,250.838 90.333 C 250.749 91.388,250.595 93.037,250.498 94.000 C 250.400 94.962,250.251 96.425,250.168 97.250 C 250.085 98.075,249.938 99.500,249.842 100.417 C 249.746 101.333,249.554 103.396,249.415 105.000 C 249.276 106.604,249.092 108.554,249.005 109.333 C 248.918 110.112,248.764 111.650,248.663 112.750 C 248.562 113.850,248.412 115.350,248.329 116.083 C 248.247 116.817,248.133 118.017,248.077 118.750 C 247.767 122.776,246.879 123.796,240.750 127.169 C 240.200 127.472,239.412 127.907,239.000 128.135 C 238.588 128.364,237.800 128.790,237.250 129.081 C 235.989 129.749,235.439 130.061,235.333 130.167 C 235.287 130.212,234.987 130.389,234.667 130.559 C 232.841 131.527,231.563 132.223,231.417 132.330 C 231.214 132.478,229.557 133.388,228.417 133.978 C 227.958 134.215,227.546 134.450,227.500 134.500 C 227.454 134.550,227.042 134.786,226.583 135.024 C 224.905 135.894,223.406 136.726,222.974 137.026 C 222.731 137.195,222.478 137.333,222.413 137.333 C 222.347 137.333,221.871 137.586,221.355 137.896 C 220.221 138.575,219.036 139.235,217.917 139.813 C 217.458 140.049,217.046 140.283,217.000 140.333 C 216.954 140.384,216.542 140.619,216.083 140.857 C 214.405 141.728,212.906 142.560,212.474 142.859 C 212.231 143.028,211.990 143.167,211.938 143.167 C 211.887 143.167,210.710 143.804,209.324 144.583 C 207.937 145.362,206.735 146.000,206.651 146.000 C 206.568 146.000,206.500 146.066,206.500 146.147 C 206.500 146.228,206.369 146.336,206.208 146.387 C 205.583 146.586,202.191 148.575,201.383 149.216 C 200.779 149.696,198.053 152.462,197.750 152.903 C 197.567 153.170,197.337 153.470,197.240 153.569 C 197.054 153.759,195.833 155.800,195.833 155.921 C 195.833 155.959,195.654 156.387,195.436 156.870 C 194.058 159.921,193.340 165.419,193.985 167.981 C 194.069 168.312,194.269 169.146,194.429 169.833 C 194.786 171.361,196.116 174.667,196.374 174.667 C 196.443 174.667,196.500 174.779,196.500 174.917 C 196.500 175.054,196.575 175.167,196.667 175.167 C 196.758 175.167,196.833 175.262,196.833 175.379 C 196.833 175.641,198.038 177.263,198.655 177.833 C 198.904 178.062,199.514 178.630,200.012 179.095 C 202.145 181.087,203.723 181.981,209.500 184.470 C 215.988 187.265,220.108 189.050,220.750 189.344 C 221.117 189.512,223.254 190.443,225.500 191.413 C 227.746 192.384,229.733 193.248,229.917 193.333 C 230.250 193.489,236.935 196.394,240.083 197.752 C 252.139 202.949,251.523 202.389,252.908 209.417 C 253.323 211.525,253.740 213.625,253.835 214.083 C 254.029 215.020,254.740 218.634,256.014 225.167 C 256.488 227.596,256.939 230.108,257.015 230.750 C 257.092 231.392,257.233 232.254,257.329 232.667 C 257.425 233.079,257.615 234.054,257.750 234.833 C 257.885 235.612,258.072 236.588,258.166 237.000 C 258.411 238.083,258.612 239.099,258.825 240.333 C 258.928 240.929,259.132 241.979,259.278 242.667 C 259.583 244.104,259.695 244.676,260.080 246.750 C 260.234 247.575,260.435 248.625,260.527 249.083 C 260.904 250.947,260.973 251.291,261.159 252.250 C 261.424 253.608,262.001 255.307,262.718 256.833 C 262.947 257.321,264.006 259.174,264.194 259.417 C 265.877 261.588,267.124 262.865,268.591 263.917 C 268.846 264.100,269.150 264.344,269.266 264.458 C 269.381 264.573,269.551 264.667,269.643 264.667 C 269.735 264.667,269.912 264.760,270.036 264.875 C 270.245 265.067,270.525 265.242,271.292 265.659 C 271.452 265.746,271.883 265.941,272.250 266.092 C 272.617 266.244,273.067 266.431,273.250 266.509 C 275.844 267.608,280.500 268.144,283.261 267.660 C 285.560 267.258,288.829 266.223,289.583 265.659 C 289.675 265.591,290.124 265.327,290.581 265.074 C 291.038 264.820,291.494 264.531,291.595 264.431 C 291.696 264.332,291.987 264.100,292.243 263.917 C 293.266 263.182,294.401 262.150,295.113 261.306 C 295.526 260.817,296.026 260.258,296.224 260.065 C 296.422 259.872,296.921 259.313,297.333 258.824 C 297.746 258.335,298.233 257.779,298.417 257.590 C 298.600 257.400,299.005 256.946,299.318 256.581 C 300.071 255.699,301.958 253.573,302.583 252.901 C 302.858 252.605,303.421 251.970,303.833 251.488 C 304.246 251.007,304.733 250.455,304.917 250.263 C 305.100 250.071,305.662 249.426,306.165 248.832 C 306.668 248.237,307.199 247.637,307.345 247.500 C 307.491 247.362,308.986 245.675,310.667 243.750 C 312.348 241.825,313.843 240.137,313.989 240.000 C 314.135 239.862,314.665 239.262,315.167 238.667 C 315.669 238.071,316.193 237.471,316.333 237.333 C 316.472 237.196,316.841 236.783,317.152 236.417 C 317.867 235.575,319.759 233.441,320.417 232.734 C 320.692 232.439,321.254 231.803,321.667 231.321 C 322.079 230.840,322.567 230.289,322.750 230.096 C 322.933 229.904,323.496 229.262,324.000 228.669 C 327.505 224.549,328.943 223.854,333.000 224.320 C 338.031 224.897,339.033 225.015,340.167 225.167 C 342.081 225.423,343.866 225.643,346.333 225.927 C 348.834 226.215,350.230 226.386,352.333 226.663 C 353.113 226.765,354.725 226.958,355.917 227.090 C 357.108 227.223,358.665 227.407,359.375 227.499 C 360.085 227.591,361.248 227.742,361.958 227.834 C 362.669 227.926,364.262 228.117,365.500 228.259 C 367.845 228.527,369.118 228.683,371.500 228.995 C 379.958 230.101,383.269 230.095,386.583 228.967 C 394.818 226.163,400.000 218.935,400.000 210.250 C 400.000 207.454,399.631 205.283,398.797 203.167 C 398.262 201.811,396.219 198.092,394.602 195.529 C 394.363 195.150,394.167 194.763,394.167 194.670 C 394.167 194.576,394.092 194.500,394.000 194.500 C 393.908 194.500,393.833 194.421,393.833 194.325 C 393.833 194.229,393.571 193.740,393.250 193.239 C 392.929 192.737,392.667 192.289,392.667 192.243 C 392.667 192.196,392.379 191.692,392.028 191.121 C 391.677 190.550,391.066 189.521,390.670 188.833 C 390.274 188.146,389.699 187.191,389.392 186.711 C 389.085 186.231,388.833 185.781,388.833 185.711 C 388.833 185.641,388.533 185.133,388.167 184.583 C 387.801 184.033,387.501 183.490,387.501 183.375 C 387.500 183.260,387.444 183.166,387.375 183.165 C 387.306 183.165,387.168 182.996,387.067 182.790 C 386.967 182.585,386.161 181.187,385.276 179.684 C 384.391 178.181,383.667 176.887,383.667 176.809 C 383.667 176.731,383.610 176.666,383.542 176.665 C 383.473 176.665,383.334 176.496,383.233 176.290 C 383.132 176.085,382.052 174.229,380.833 172.167 C 379.614 170.104,378.535 168.249,378.434 168.043 C 378.333 167.837,378.194 167.669,378.125 167.668 C 378.056 167.667,378.000 167.573,377.999 167.458 C 377.999 167.344,377.699 166.800,377.333 166.250 C 376.967 165.700,376.667 165.203,376.667 165.146 C 376.667 165.089,376.179 164.239,375.583 163.256 C 374.988 162.274,374.500 161.440,374.500 161.404 C 374.500 161.368,374.262 160.951,373.971 160.479 C 372.462 158.027,372.504 155.924,374.128 152.500 C 375.062 150.533,375.927 148.672,376.435 147.541 C 376.847 146.625,377.906 144.360,378.754 142.583 C 379.176 141.699,380.112 139.677,380.992 137.750 C 381.285 137.108,381.738 136.133,381.998 135.583 C 382.998 133.468,384.137 131.045,384.545 130.167 C 384.779 129.662,385.268 128.612,385.631 127.833 C 385.994 127.054,386.479 126.004,386.709 125.500 C 386.939 124.996,387.444 123.908,387.831 123.083 C 388.832 120.947,389.816 118.833,390.080 118.250 C 390.299 117.764,391.006 116.258,392.545 112.996 C 394.828 108.160,395.539 102.416,394.332 98.583 C 393.609 96.289,392.775 94.215,392.489 94.000 C 392.428 93.954,392.331 93.767,392.273 93.583 C 392.216 93.400,391.981 93.032,391.751 92.766 C 391.521 92.499,391.333 92.222,391.333 92.150 C 391.333 91.776,388.584 88.848,387.601 88.176 C 387.408 88.044,387.212 87.887,387.167 87.827 C 385.631 85.819,379.754 83.909,375.167 83.926 C 372.711 83.935,371.738 84.055,369.083 84.672 C 368.625 84.779,367.988 84.927,367.667 85.001 C 367.346 85.076,366.483 85.264,365.750 85.419 C 365.017 85.575,364.154 85.762,363.833 85.835 C 363.512 85.909,362.350 86.166,361.250 86.406 C 358.899 86.920,357.963 87.131,357.167 87.325 C 356.846 87.404,356.133 87.554,355.583 87.659 C 355.033 87.765,354.358 87.913,354.083 87.990 C 353.808 88.066,353.133 88.223,352.583 88.338 C 352.033 88.453,351.058 88.679,350.417 88.841 C 349.775 89.002,348.912 89.186,348.500 89.250 C 348.087 89.314,347.225 89.498,346.583 89.660 C 345.942 89.822,344.817 90.082,344.083 90.237 C 342.572 90.557,342.001 90.685,340.000 91.149 C 339.221 91.329,338.283 91.528,337.917 91.590 C 337.550 91.653,336.725 91.835,336.083 91.996 C 335.442 92.157,334.317 92.415,333.583 92.571 C 331.975 92.911,331.269 93.069,329.782 93.419 C 326.350 94.229,324.368 94.541,323.417 94.423 C 321.927 94.238,320.353 93.486,319.288 92.449 C 319.081 92.248,318.166 91.408,317.255 90.583 C 316.344 89.758,315.253 88.746,314.830 88.333 C 314.407 87.921,313.279 86.859,312.322 85.975 C 309.748 83.593,309.735 83.581,307.404 81.408 C 306.219 80.303,304.805 78.990,304.261 78.491 C 303.717 77.992,302.965 77.283,302.589 76.917 C 302.213 76.550,301.496 75.880,300.994 75.429 C 300.493 74.977,299.072 73.665,297.837 72.512 C 296.601 71.360,295.265 70.117,294.868 69.750 C 294.471 69.383,293.830 68.783,293.444 68.417 C 293.057 68.050,291.932 67.000,290.943 66.083 C 289.954 65.167,288.865 64.154,288.523 63.833 C 286.367 61.810,285.473 60.998,284.667 60.333 C 284.167 59.921,283.657 59.490,283.534 59.375 C 283.410 59.260,283.245 59.167,283.167 59.167 C 283.088 59.167,282.925 59.068,282.804 58.948 C 282.137 58.286,278.780 56.795,276.667 56.222 C 275.777 55.981,269.864 55.752,269.083 55.928 " stroke="none" fill="#fbe36c" fill-rule="evenodd"></path><path id="path1" d="M262.750 0.284 C 262.292 0.418,261.504 0.629,261.000 0.753 C 257.796 1.542,257.159 1.828,256.227 2.891 C 252.888 6.702,256.666 12.321,261.584 10.858 C 262.226 10.667,263.624 10.291,264.692 10.021 C 268.602 9.034,269.749 7.858,269.750 4.833 C 269.751 1.141,266.674 -0.859,262.750 0.284 M232.417 6.436 C 231.502 6.559,229.123 7.102,227.750 7.501 C 227.475 7.581,226.950 7.697,226.583 7.760 C 226.217 7.822,225.504 7.982,225.000 8.115 C 223.818 8.427,222.598 8.737,220.833 9.173 C 220.054 9.365,219.154 9.593,218.833 9.680 C 218.512 9.766,217.800 9.944,217.250 10.074 C 216.700 10.205,215.987 10.387,215.667 10.478 C 215.346 10.569,214.333 10.842,213.417 11.085 C 212.500 11.328,211.525 11.592,211.250 11.671 C 209.987 12.034,209.516 12.162,208.578 12.395 C 208.026 12.533,207.238 12.752,206.828 12.882 C 206.419 13.012,205.783 13.200,205.417 13.299 C 204.657 13.505,202.101 14.268,201.036 14.606 C 200.643 14.731,200.211 14.833,200.075 14.833 C 199.940 14.833,199.699 14.901,199.539 14.983 C 199.380 15.065,198.688 15.298,198.000 15.501 C 197.313 15.704,196.450 15.965,196.083 16.081 C 195.717 16.197,194.742 16.498,193.917 16.750 C 193.092 17.001,191.779 17.413,191.000 17.665 C 190.221 17.918,188.946 18.324,188.167 18.568 C 187.387 18.812,186.600 19.076,186.417 19.156 C 186.233 19.235,185.446 19.498,184.667 19.739 C 183.887 19.981,183.100 20.244,182.917 20.324 C 182.733 20.404,182.171 20.592,181.667 20.742 C 181.162 20.891,180.600 21.082,180.417 21.167 C 180.233 21.251,179.408 21.546,178.583 21.821 C 177.205 22.282,175.653 22.830,172.583 23.940 C 171.942 24.172,171.229 24.422,171.000 24.495 C 170.771 24.569,170.171 24.795,169.667 24.999 C 169.162 25.202,168.675 25.387,168.583 25.409 C 168.399 25.454,167.926 25.625,167.417 25.832 C 166.729 26.111,165.235 26.648,164.833 26.760 C 164.604 26.824,164.079 27.026,163.667 27.208 C 163.254 27.390,162.680 27.643,162.391 27.769 C 162.103 27.896,161.783 28.000,161.681 28.000 C 161.579 28.000,161.365 28.069,161.206 28.153 C 161.047 28.238,160.467 28.474,159.917 28.679 C 159.367 28.883,158.521 29.227,158.037 29.442 C 157.553 29.657,157.051 29.833,156.922 29.833 C 156.792 29.833,156.640 29.908,156.583 30.000 C 156.527 30.092,156.368 30.167,156.231 30.167 C 156.094 30.167,155.661 30.313,155.269 30.491 C 154.877 30.670,154.150 30.973,153.653 31.166 C 153.156 31.358,152.525 31.618,152.250 31.745 C 151.975 31.871,151.337 32.132,150.833 32.325 C 149.578 32.805,149.358 32.899,148.526 33.310 C 148.128 33.506,147.730 33.667,147.642 33.667 C 147.554 33.667,147.148 33.817,146.741 34.000 C 146.333 34.183,145.667 34.483,145.259 34.667 C 144.852 34.850,144.479 35.000,144.430 35.000 C 144.381 35.000,143.871 35.212,143.296 35.471 C 142.721 35.730,141.740 36.156,141.117 36.416 C 140.494 36.677,139.946 36.952,139.899 37.028 C 139.852 37.104,139.705 37.167,139.571 37.167 C 139.438 37.167,138.749 37.436,138.040 37.765 C 137.330 38.095,136.350 38.550,135.862 38.777 C 135.374 39.004,134.661 39.324,134.279 39.488 C 133.258 39.926,132.072 40.462,130.729 41.094 C 130.075 41.401,129.025 41.887,128.395 42.175 C 125.230 43.620,114.605 48.874,110.750 50.901 C 109.650 51.479,107.925 52.384,106.917 52.911 C 105.908 53.439,104.858 54.002,104.583 54.163 C 103.987 54.512,102.466 55.347,101.083 56.085 C 100.112 56.603,99.028 57.205,97.833 57.889 C 97.513 58.072,96.915 58.404,96.505 58.626 C 96.095 58.848,95.558 59.173,95.312 59.348 C 95.066 59.523,94.801 59.667,94.722 59.667 C 94.643 59.667,94.189 59.929,93.713 60.250 C 93.236 60.571,92.787 60.834,92.715 60.834 C 92.643 60.834,92.133 61.134,91.583 61.500 C 91.033 61.866,90.536 62.166,90.479 62.166 C 90.422 62.166,89.372 62.780,88.146 63.529 C 86.920 64.278,85.092 65.390,84.083 66.001 C 80.880 67.942,70.593 74.574,69.908 75.140 C 69.811 75.220,69.399 75.502,68.991 75.766 C 68.584 76.030,68.212 76.287,68.167 76.336 C 68.121 76.385,66.808 77.320,65.250 78.412 C 63.692 79.505,62.272 80.534,62.096 80.698 C 61.919 80.862,61.638 81.040,61.471 81.093 C 61.303 81.146,61.167 81.243,61.167 81.309 C 61.167 81.374,60.928 81.569,60.637 81.741 C 60.346 81.913,59.990 82.152,59.846 82.273 C 59.701 82.393,58.943 82.963,58.161 83.538 C 57.378 84.113,56.558 84.752,56.338 84.958 C 56.117 85.165,55.882 85.333,55.814 85.333 C 55.746 85.333,55.591 85.429,55.470 85.546 C 55.349 85.663,54.762 86.131,54.167 86.587 C 53.571 87.044,53.046 87.458,53.000 87.509 C 52.954 87.559,52.617 87.822,52.250 88.091 C 51.883 88.361,51.546 88.619,51.500 88.666 C 51.454 88.712,51.042 89.047,50.583 89.411 C 50.125 89.775,49.712 90.112,49.667 90.161 C 49.621 90.211,49.021 90.698,48.333 91.244 C 47.646 91.791,46.949 92.372,46.785 92.536 C 46.621 92.699,46.434 92.835,46.369 92.837 C 46.303 92.839,45.960 93.102,45.607 93.421 C 45.253 93.739,44.915 94.000,44.857 94.001 C 44.798 94.001,44.524 94.207,44.248 94.459 C 43.972 94.711,43.147 95.403,42.414 95.997 C 41.682 96.591,41.001 97.154,40.900 97.247 C 40.799 97.340,40.351 97.717,39.905 98.083 C 39.459 98.450,38.977 98.862,38.833 99.000 C 38.689 99.138,38.087 99.662,37.494 100.166 C 36.902 100.670,36.229 101.270,35.999 101.499 C 35.769 101.729,34.835 102.592,33.923 103.417 C 30.839 106.206,24.423 112.793,22.417 115.230 C 22.050 115.675,21.600 116.206,21.417 116.410 C 20.671 117.239,20.218 117.783,19.747 118.417 C 19.473 118.783,19.173 119.166,19.078 119.267 C 18.984 119.368,18.459 120.043,17.911 120.767 C 17.364 121.491,16.877 122.121,16.828 122.167 C 16.779 122.212,16.443 122.662,16.080 123.167 C 15.718 123.671,15.289 124.229,15.128 124.406 C 14.966 124.584,14.833 124.785,14.833 124.853 C 14.833 124.921,14.729 125.080,14.602 125.207 C 14.475 125.334,13.896 126.183,13.315 127.094 C 12.733 128.005,12.200 128.775,12.129 128.806 C 12.058 128.836,12.000 128.961,12.000 129.083 C 12.000 129.206,11.943 129.331,11.874 129.361 C 11.744 129.418,10.000 132.289,10.000 132.445 C 10.000 132.493,9.859 132.731,9.686 132.974 C 8.990 133.955,5.333 141.170,5.333 141.562 C 5.333 141.622,5.176 142.026,4.983 142.460 C 4.572 143.389,4.550 143.443,3.787 145.500 C 2.979 147.677,2.103 150.562,1.586 152.750 C 1.348 153.758,1.082 154.883,0.996 155.250 C 0.909 155.617,0.761 156.479,0.667 157.167 C 0.572 157.854,0.402 159.092,0.289 159.917 C 0.021 161.868,0.020 171.099,0.287 172.917 C 0.875 176.917,0.797 176.498,1.421 179.000 C 1.710 180.161,2.093 181.606,2.325 182.417 C 2.542 183.174,3.571 185.995,3.905 186.750 C 5.718 190.837,8.327 195.629,9.290 196.637 C 9.405 196.758,9.500 196.921,9.500 197.000 C 9.500 197.079,9.595 197.242,9.710 197.363 C 9.826 197.484,10.056 197.795,10.222 198.053 C 10.387 198.311,10.625 198.648,10.752 198.803 C 10.878 198.957,11.604 199.871,12.366 200.833 C 14.836 203.955,19.165 208.373,21.920 210.583 C 22.376 210.949,22.863 211.364,23.000 211.505 C 23.137 211.647,23.447 211.909,23.688 212.089 C 24.974 213.051,26.761 214.419,26.833 214.498 C 26.879 214.547,27.367 214.887,27.917 215.252 C 28.467 215.618,28.954 215.962,29.000 216.017 C 29.114 216.154,34.404 219.510,35.333 220.034 C 35.746 220.267,36.796 220.863,37.667 221.359 C 39.089 222.169,45.831 225.543,47.083 226.073 C 47.358 226.189,47.909 226.445,48.307 226.642 C 48.706 226.839,49.097 227.000,49.178 227.000 C 49.258 227.000,49.758 227.195,50.287 227.434 C 50.817 227.673,51.400 227.934,51.583 228.014 C 52.454 228.395,58.338 230.631,59.000 230.832 C 59.413 230.958,59.825 231.109,59.917 231.169 C 60.008 231.229,60.533 231.409,61.083 231.569 C 61.633 231.728,62.233 231.925,62.417 232.007 C 62.600 232.088,63.350 232.339,64.083 232.564 C 66.262 233.234,69.220 234.123,69.667 234.244 C 69.896 234.305,70.327 234.426,70.625 234.511 C 72.029 234.914,72.481 235.037,73.333 235.250 C 73.837 235.376,74.550 235.563,74.917 235.667 C 75.821 235.923,76.718 236.142,81.083 237.176 C 81.450 237.263,82.313 237.446,83.000 237.583 C 83.688 237.721,84.925 237.986,85.750 238.172 C 87.411 238.547,88.083 238.682,90.167 239.060 C 90.946 239.201,92.015 239.395,92.542 239.491 C 93.069 239.588,93.931 239.745,94.458 239.841 C 94.985 239.937,96.129 240.124,97.000 240.256 C 97.871 240.389,99.108 240.579,99.750 240.679 C 101.880 241.012,102.897 241.154,105.000 241.411 C 106.146 241.551,107.683 241.743,108.417 241.838 C 111.664 242.260,114.211 242.514,120.167 243.010 C 137.927 244.491,160.052 244.491,178.833 243.010 C 187.655 242.314,187.310 242.344,192.083 241.841 C 198.457 241.170,199.008 241.107,202.333 240.672 C 203.112 240.570,204.612 240.380,205.667 240.249 C 206.721 240.119,208.090 239.934,208.708 239.839 C 210.760 239.524,211.897 239.358,213.833 239.090 C 214.887 238.944,216.162 238.754,216.667 238.669 C 218.276 238.396,220.344 238.051,223.083 237.598 C 223.908 237.462,225.015 237.271,225.542 237.175 C 227.761 236.770,228.469 236.644,229.417 236.487 C 229.967 236.395,231.504 236.103,232.833 235.838 C 234.162 235.573,236.075 235.193,237.083 234.994 C 238.092 234.795,239.254 234.560,239.667 234.471 C 240.079 234.382,240.979 234.198,241.667 234.061 C 242.847 233.826,243.352 233.719,245.042 233.342 C 245.431 233.255,246.162 233.103,246.667 233.004 C 247.525 232.836,249.675 232.339,251.000 232.003 C 251.321 231.922,252.483 231.655,253.583 231.411 C 254.683 231.167,255.756 230.900,255.966 230.817 C 256.177 230.734,256.497 230.667,256.678 230.667 C 256.949 230.667,256.989 230.587,256.908 230.208 C 256.652 229.015,256.465 228.084,256.080 226.083 C 255.412 222.616,255.315 222.121,255.158 221.417 C 255.077 221.050,254.901 220.150,254.767 219.417 C 254.414 217.474,254.409 217.447,253.935 215.083 C 253.697 213.892,253.190 211.304,252.810 209.333 C 251.764 203.906,250.750 202.350,247.399 201.025 C 246.950 200.847,246.171 200.516,245.667 200.288 C 245.162 200.061,243.063 199.143,241.000 198.250 C 238.938 197.356,236.950 196.491,236.583 196.328 C 236.217 196.165,234.867 195.583,233.583 195.034 C 232.300 194.485,230.838 193.849,230.333 193.621 C 229.829 193.393,228.329 192.739,227.000 192.167 C 225.671 191.596,224.109 190.912,223.530 190.648 C 222.951 190.383,222.444 190.167,222.403 190.167 C 222.363 190.167,222.012 190.021,221.623 189.843 C 220.387 189.276,211.311 185.333,211.242 185.333 C 211.206 185.333,210.780 185.149,210.296 184.925 C 209.812 184.700,208.442 184.095,207.250 183.581 C 203.679 182.040,201.850 180.924,199.824 179.048 L 198.811 178.110 197.697 178.314 C 197.085 178.425,196.283 178.586,195.917 178.670 C 195.550 178.754,194.688 178.910,194.000 179.015 C 193.313 179.121,192.450 179.266,192.083 179.338 C 190.091 179.729,189.270 179.875,187.833 180.094 C 186.963 180.226,185.838 180.406,185.333 180.494 C 183.769 180.766,182.319 180.993,180.500 181.250 C 179.537 181.386,178.262 181.577,177.667 181.674 C 176.159 181.920,174.746 182.116,172.417 182.403 C 171.317 182.538,169.817 182.731,169.083 182.831 C 166.589 183.172,165.087 183.351,162.667 183.597 C 161.337 183.731,159.500 183.919,158.583 184.014 C 137.545 186.186,115.332 186.188,99.667 184.019 C 94.878 183.356,94.641 183.318,92.167 182.840 C 91.754 182.761,90.929 182.613,90.333 182.512 C 89.304 182.338,87.098 181.837,85.833 181.491 C 85.172 181.310,83.954 181.018,83.333 180.893 C 83.104 180.846,82.767 180.747,82.583 180.673 C 82.400 180.599,81.912 180.448,81.500 180.338 C 80.177 179.984,75.621 178.480,74.924 178.166 C 74.553 178.000,73.575 177.580,72.750 177.235 C 71.401 176.670,69.144 175.556,66.708 174.254 C 66.227 173.997,65.833 173.722,65.833 173.643 C 65.833 173.564,65.751 173.500,65.651 173.500 C 65.551 173.500,64.819 173.033,64.026 172.461 C 55.633 166.417,53.092 159.091,56.169 149.810 C 56.862 147.724,59.196 142.659,59.527 142.528 C 59.604 142.497,59.667 142.366,59.667 142.236 C 59.667 142.106,59.733 142.000,59.814 142.000 C 59.895 142.000,59.996 141.869,60.039 141.708 C 60.171 141.214,63.912 135.722,64.496 135.167 C 64.544 135.121,65.068 134.483,65.661 133.750 C 66.254 133.017,66.779 132.379,66.828 132.333 C 66.877 132.287,67.399 131.688,67.989 131.000 C 69.351 129.413,75.940 122.827,77.917 121.078 C 78.742 120.347,79.454 119.711,79.500 119.662 C 79.579 119.579,81.776 117.691,82.671 116.938 C 82.902 116.743,83.464 116.286,83.921 115.922 C 84.377 115.559,84.787 115.221,84.833 115.171 C 84.879 115.122,85.217 114.858,85.583 114.585 C 85.950 114.312,86.362 113.999,86.500 113.888 C 87.106 113.401,88.214 112.537,88.922 112.000 C 89.345 111.679,89.828 111.304,89.995 111.167 C 90.310 110.907,91.908 109.751,93.917 108.329 C 94.558 107.875,95.160 107.440,95.254 107.363 C 95.348 107.286,95.648 107.080,95.921 106.905 C 96.194 106.731,96.508 106.500,96.621 106.393 C 96.733 106.287,97.108 106.026,97.454 105.814 C 97.800 105.602,98.182 105.333,98.304 105.215 C 98.425 105.097,98.588 105.000,98.667 105.000 C 98.745 105.000,98.909 104.903,99.030 104.785 C 99.151 104.667,99.533 104.398,99.879 104.186 C 100.226 103.974,100.601 103.709,100.713 103.598 C 100.825 103.486,101.292 103.178,101.750 102.914 C 102.208 102.649,102.621 102.388,102.667 102.333 C 102.776 102.202,108.961 98.280,109.500 98.000 C 109.729 97.881,109.954 97.738,110.000 97.683 C 110.046 97.628,110.309 97.461,110.583 97.312 C 110.858 97.163,112.084 96.432,113.308 95.687 C 114.531 94.943,115.566 94.333,115.608 94.333 C 115.649 94.333,116.093 94.071,116.595 93.750 C 117.096 93.429,117.574 93.167,117.656 93.167 C 117.738 93.167,117.831 93.110,117.861 93.042 C 117.892 92.973,118.217 92.767,118.583 92.585 C 118.950 92.402,119.287 92.214,119.333 92.167 C 119.425 92.072,121.034 91.199,121.624 90.924 C 121.829 90.828,121.998 90.694,121.999 90.625 C 121.999 90.556,122.068 90.500,122.152 90.500 C 122.235 90.500,122.816 90.212,123.443 89.860 C 125.826 88.521,126.593 88.111,132.417 85.059 C 135.598 83.392,143.108 79.692,147.250 77.751 C 147.983 77.408,149.033 76.915,149.583 76.657 C 151.256 75.873,153.193 75.000,153.262 75.000 C 153.298 75.000,153.985 74.695,154.788 74.322 C 155.592 73.949,156.400 73.580,156.583 73.502 C 156.767 73.425,157.367 73.159,157.917 72.913 C 158.467 72.667,159.067 72.407,159.250 72.337 C 159.433 72.267,159.921 72.053,160.333 71.862 C 160.746 71.671,161.833 71.205,162.750 70.826 C 164.647 70.043,165.377 69.729,166.067 69.398 C 166.333 69.271,166.619 69.167,166.701 69.167 C 166.784 69.167,167.166 69.024,167.551 68.850 C 167.935 68.676,169.300 68.111,170.583 67.595 C 171.867 67.079,173.047 66.584,173.206 66.495 C 173.365 66.406,173.569 66.333,173.659 66.333 C 173.750 66.333,174.233 66.146,174.734 65.917 C 175.235 65.687,175.711 65.500,175.791 65.500 C 175.872 65.500,176.248 65.350,176.627 65.167 C 177.007 64.983,177.429 64.833,177.565 64.833 C 177.702 64.833,177.860 64.758,177.917 64.667 C 177.973 64.575,178.135 64.500,178.276 64.500 C 178.417 64.500,178.769 64.396,179.058 64.270 C 179.347 64.143,179.857 63.918,180.191 63.770 C 180.525 63.622,181.312 63.321,181.941 63.102 C 182.569 62.882,183.815 62.431,184.708 62.101 C 188.639 60.647,189.667 60.273,191.000 59.809 C 191.779 59.538,192.567 59.253,192.750 59.175 C 192.933 59.097,193.346 58.944,193.667 58.833 C 193.987 58.723,194.400 58.574,194.583 58.501 C 194.767 58.428,195.292 58.242,195.750 58.088 C 196.208 57.934,196.733 57.741,196.917 57.660 C 197.100 57.579,197.662 57.391,198.167 57.241 C 199.294 56.907,199.980 56.677,200.417 56.489 C 200.600 56.411,201.912 55.968,203.333 55.505 C 204.754 55.043,206.479 54.470,207.167 54.234 C 207.854 53.997,208.717 53.729,209.083 53.638 C 209.450 53.546,209.900 53.407,210.083 53.328 C 210.472 53.159,211.420 52.855,213.167 52.337 C 213.854 52.133,214.567 51.906,214.750 51.833 C 214.933 51.760,215.533 51.573,216.083 51.417 C 217.579 50.993,218.214 50.801,218.583 50.660 C 218.767 50.590,219.367 50.406,219.917 50.249 C 220.467 50.093,221.517 49.778,222.250 49.548 C 222.983 49.319,223.996 49.023,224.500 48.892 C 225.004 48.760,225.660 48.580,225.958 48.493 C 226.256 48.405,226.744 48.265,227.042 48.180 C 227.340 48.096,228.258 47.829,229.083 47.586 C 231.190 46.965,231.627 46.843,232.667 46.583 C 233.171 46.458,233.846 46.280,234.167 46.189 C 234.487 46.098,235.463 45.836,236.333 45.606 C 237.204 45.377,238.517 45.025,239.250 44.824 C 239.983 44.622,240.996 44.359,241.500 44.239 C 242.004 44.119,242.679 43.948,243.000 43.858 C 244.254 43.508,245.470 43.200,246.667 42.930 C 247.354 42.774,248.104 42.584,248.333 42.507 C 248.563 42.430,249.350 42.237,250.083 42.078 C 250.817 41.918,252.129 41.608,253.000 41.388 C 253.871 41.168,255.146 40.872,255.833 40.729 C 256.521 40.587,257.383 40.398,257.750 40.311 C 258.117 40.223,258.717 40.080,259.083 39.992 C 259.450 39.904,260.313 39.716,261.000 39.575 C 262.374 39.292,263.196 39.110,264.333 38.840 C 264.746 38.742,265.683 38.547,266.417 38.406 C 267.831 38.136,268.779 37.941,270.000 37.668 C 270.718 37.507,272.575 37.153,274.478 36.815 C 276.908 36.383,278.242 35.573,279.833 33.565 C 283.645 28.755,278.296 21.192,272.127 22.670 C 271.736 22.764,270.217 23.072,268.750 23.356 C 267.283 23.639,265.558 23.975,264.917 24.104 C 262.433 24.601,262.439 24.600,262.549 24.150 C 263.011 22.265,263.156 21.479,263.161 20.833 C 263.180 18.378,261.780 15.117,260.226 14.000 C 259.908 13.771,259.557 13.505,259.448 13.410 C 258.414 12.505,255.696 12.121,253.833 12.616 C 252.650 12.930,250.321 13.489,249.500 13.656 C 249.088 13.739,248.150 13.969,247.417 14.166 C 246.683 14.363,245.596 14.629,245.000 14.758 C 243.919 14.991,243.610 15.069,241.784 15.569 C 241.252 15.714,240.757 15.833,240.684 15.833 C 240.610 15.833,240.502 15.102,240.443 14.208 C 240.257 11.406,238.259 7.500,237.011 7.500 C 236.926 7.500,236.758 7.402,236.637 7.283 C 236.053 6.707,233.784 6.252,232.417 6.436 M286.667 8.093 C 286.438 8.130,285.537 8.241,284.667 8.341 C 281.232 8.734,279.554 9.081,278.917 9.532 C 277.042 10.857,276.277 12.360,276.360 14.556 C 276.455 17.103,277.393 18.476,279.863 19.685 C 280.413 19.953,282.272 20.026,283.667 19.833 C 284.446 19.726,286.034 19.543,287.196 19.428 C 290.389 19.111,291.826 18.263,292.909 16.057 C 294.890 12.021,291.235 7.356,286.667 8.093 M308.167 17.099 C 307.846 17.135,307.058 17.235,306.417 17.321 C 305.775 17.408,304.500 17.567,303.583 17.675 C 297.342 18.410,294.953 20.454,294.927 25.083 C 294.896 30.540,298.589 32.845,305.750 31.840 C 306.392 31.750,307.704 31.598,308.667 31.501 C 311.783 31.189,313.028 30.698,314.514 29.195 C 319.406 24.249,315.238 16.305,308.167 17.099 " stroke="none" fill="#64ccc4" fill-rule="evenodd"></path><path id="path2" d="" stroke="none" fill="#b4dc94" fill-rule="evenodd"></path><path id="path3" d="" stroke="none" fill="#8cd4ac" fill-rule="evenodd"></path><path id="path4" d="" stroke="none" fill="#8cd8bc" fill-rule="evenodd"></path></g></svg>